<svg width="45" height="45" viewBox="0 0 45 45" fill="none" xmlns="http://www.w3.org/2000/svg">
<circle cx="22.5" cy="22.5" r="22.5" fill="#121936"/>
<path fill-rule="evenodd" clip-rule="evenodd" d="M22.4999 15.0862C19.7035 15.0862 16.9003 15.5588 15.8832 16.5009C15.0393 17.2825 14.758 18.6633 14.6632 19.5375C14.6632 19.5375 14.6501 19.6239 14.6501 19.6611C14.6501 20.0039 14.9444 20.2789 15.3043 20.2789C15.3468 20.2789 16.92 20.1584 17.8685 20.0843C17.8913 20.0811 17.9143 20.0781 17.9372 20.0719C18.2904 20.0627 18.575 19.7908 18.575 19.4541L18.5782 18.237C18.5782 17.8601 18.9021 17.5574 19.3012 17.5574H25.6987C26.0978 17.5574 26.4218 17.8601 26.4218 18.237L26.425 19.4541C26.425 19.7908 26.7095 20.0627 27.0628 20.0719C27.0854 20.0781 27.1085 20.0811 27.1315 20.0843C28.0801 20.1583 29.6533 20.2789 29.6957 20.2789C30.0553 20.2789 30.3499 20.0039 30.3499 19.6611C30.3499 19.6239 30.3368 19.5375 30.3368 19.5375C30.2419 18.6633 29.9609 17.2826 29.117 16.5009C28.0996 15.5588 25.2964 15.0862 22.4999 15.0862ZM22.4999 23.1177C21.7771 23.1177 21.1916 23.6706 21.1916 24.3533C21.1916 25.036 21.7771 25.5889 22.4999 25.5889C23.2228 25.5889 23.8082 25.036 23.8082 24.3533C23.8082 23.6706 23.2228 23.1177 22.4999 23.1177ZM21.5187 20.3375V19.5653C21.5187 19.139 21.1524 18.793 20.7011 18.793C20.2498 18.793 19.8834 19.1391 19.8834 19.5653V20.3375L15.4709 24.7889C15.1669 25.07 14.9771 25.4622 14.9771 25.8948V27.1335C14.9771 27.8162 15.5626 28.3691 16.2854 28.3691H16.6125V29.1414C16.6125 29.5677 16.979 29.9136 17.4302 29.9136C17.8815 29.9136 18.2479 29.5677 18.2479 29.1414V28.3691H26.752V29.1414C26.752 29.5677 27.1182 29.9136 27.5697 29.9136C28.021 29.9136 28.3873 29.5677 28.3873 29.1414V28.3691H28.7144C29.4373 28.3691 30.0227 27.8162 30.0227 27.1335V25.8948C30.0227 25.4622 29.833 25.07 29.5289 24.7889L25.1166 20.3375V19.5653C25.1166 19.139 24.7502 18.793 24.2989 18.793C23.8476 18.793 23.4812 19.1391 23.4812 19.5653V20.3375H21.5187ZM22.4999 21.8821C23.9456 21.8821 25.1166 22.988 25.1166 24.3533C25.1166 25.7187 23.9457 26.8247 22.4999 26.8247C21.0543 26.8247 19.8834 25.7187 19.8834 24.3533C19.8834 22.988 21.0543 21.8821 22.4999 21.8821Z" fill="#FFD74B"/>
</svg>
